<?xml version="1.0" standalone="no"?>
<!DOCTYPE svg PUBLIC "-//W3C//DTD SVG 20010904//EN"
 "http://www.w3.org/TR/2001/REC-SVG-20010904/DTD/svg10.dtd">
<svg version="1.0" xmlns="http://www.w3.org/2000/svg"
 width="1024.000000pt" height="1024.000000pt" viewBox="0 0 1024.000000 1024.000000"
 preserveAspectRatio="xMidYMid meet">
<metadata>
Created by potrace 1.14, written by Peter Selinger 2001-2017
</metadata>
<g transform="translate(0.000000,1024.000000) scale(0.100000,-0.100000)"
fill="#000000" stroke="none">
<path d="M2495 8323 c-47 -24 -94 -74 -123 -128 l-27 -50 -2 -1130 c-1 -621
-2 -1322 -3 -1557 l0 -428 -217 0 c-121 0 -235 -5 -256 -11 -20 -5 -53 -26
-72 -44 -66 -67 -67 -160 -3 -222 63 -61 75 -63 420 -63 298 0 314 -1 356 -21
24 -12 46 -28 49 -35 4 -11 60 -14 305 -14 282 0 300 -1 293 -17 -28 -70 -71
-290 -81 -413 -2 -30 -10 -89 -17 -130 l-13 -75 -109 0 c-106 0 -110 -1 -113
-22 -3 -23 -2 -23 108 -23 111 0 112 0 107 -22 -8 -30 -64 -387 -72 -460 l-7
-58 -849 0 -849 0 71 -142 c39 -79 98 -189 131 -245 34 -58 56 -108 52 -114
-5 -8 -3 -9 6 -4 8 5 23 -5 44 -29 l31 -37 3 143 c2 79 5 144 6 145 2 2 560 4
1058 3 l248 0 -6 -47 c-4 -27 -9 -63 -13 -82 l-6 -33 -70 -5 c-127 -7 -226
-52 -316 -143 -65 -66 -99 -122 -128 -208 -20 -58 -21 -81 -19 -329 l3 -267
120 -96 c66 -53 186 -142 268 -198 141 -97 147 -100 147 -74 0 30 76 311 120
442 16 47 32 103 36 125 4 22 14 56 22 75 8 19 36 96 63 170 159 454 240 671
317 846 67 152 337 688 372 740 92 135 225 220 396 255 91 19 135 20 887 17
l792 -3 70 -24 c174 -58 290 -149 377 -297 44 -76 221 -439 335 -689 74 -162
238 -596 325 -860 52 -158 172 -563 199 -675 17 -69 35 -129 39 -134 9 -9 126
61 210 125 19 14 87 65 150 112 63 47 129 99 147 115 l31 29 -5 269 c-5 307
-14 356 -82 461 -83 129 -255 222 -413 223 -40 0 -34 -12 -54 120 l-6 40 646
0 c355 0 649 1 654 3 4 1 9 -61 12 -138 3 -81 9 -140 15 -140 20 0 148 206
230 369 47 93 85 173 85 178 0 4 -380 8 -845 8 -465 0 -845 1 -845 3 0 1 -18
117 -40 257 -22 140 -40 261 -40 268 0 9 50 12 218 12 211 0 218 1 218 20 0
19 -7 20 -222 20 l-221 0 -22 148 c-36 246 -42 280 -70 388 l-28 104 322 0
c370 0 396 4 465 71 23 22 52 62 63 87 l22 47 3 1630 c1 1107 -1 1646 -8 1681
-16 76 -59 137 -122 173 l-53 31 -2595 0 c-2343 -1 -2598 -2 -2625 -17z m4765
-228 l0 -95 -842 0 c-464 0 -1124 -1 -1468 -2 -344 -1 -1033 -1 -1532 0 l-908
2 0 45 c0 49 17 92 46 116 27 22 188 24 2532 26 l2172 2 0 -94z m-756 -195
l756 0 0 -1555 0 -1555 -158 0 -158 0 -16 33 c-21 43 -110 141 -162 176 -23
16 -104 57 -181 91 -77 35 -207 93 -290 130 -82 38 -251 113 -375 169 l-225
101 -569 0 -569 0 -166 -77 c-91 -42 -236 -106 -321 -143 -370 -161 -566 -253
-612 -286 -49 -37 -132 -130 -151 -171 -10 -22 -16 -23 -119 -23 l-108 0 0
1555 0 1555 849 0 850 0 -50 -51 c-52 -53 -109 -142 -109 -170 0 -11 -21 -24
-60 -38 -146 -54 -250 -229 -250 -424 l0 -61 38 37 c21 20 40 37 42 37 3 0 4
-31 2 -69 -2 -37 4 -109 12 -160 9 -50 16 -95 16 -100 0 -6 -20 -13 -45 -17
-61 -9 -99 -39 -91 -73 3 -14 17 -81 31 -149 14 -68 32 -138 39 -157 16 -37
67 -75 102 -75 20 0 21 -5 23 -170 l2 -170 -609 0 c-671 0 -622 5 -622 -60 0
-19 7 -33 19 -40 13 -6 232 -10 638 -10 l618 -1 39 -34 39 -35 -386 0 -386 0
-15 -22 c-20 -29 -20 -47 1 -70 15 -17 42 -18 435 -18 l418 0 0 158 c0 86 3
214 7 284 l6 126 42 -57 c47 -63 116 -112 186 -131 32 -8 104 -11 230 -8 225
5 267 18 357 106 31 31 62 66 69 77 9 16 12 -31 12 -227 1 -137 5 -248 9 -248
19 0 101 61 125 92 49 63 57 106 57 289 l0 169 28 11 c67 26 76 35 89 79 16
53 19 133 9 210 -5 36 -4 50 2 41 6 -8 8 -20 5 -27 -2 -6 0 -15 6 -18 14 -9
25 14 12 27 -7 7 -4 14 12 21 12 7 23 23 25 38 4 33 -33 63 -89 72 l-42 7 7
46 c3 25 6 98 6 162 l0 116 55 35 c47 29 125 118 125 141 0 4 -18 9 -41 12
-63 8 -113 48 -159 127 -50 85 -89 132 -137 161 -35 22 -35 23 -14 31 56 20
151 109 151 140 0 3 -39 3 -87 1 -49 -3 -99 -1 -113 5 -22 8 -20 10 35 29 39
13 66 17 77 12 9 -5 357 -9 772 -9z m-3564 -85 c20 -52 11 -55 -149 -55 -150
0 -171 5 -171 40 0 35 21 40 167 40 l143 0 10 -25z m-5 -310 l0 -30 -149 0
c-126 0 -150 2 -159 16 -6 9 -7 24 -4 33 6 15 25 16 159 14 l153 -3 0 -30z
m-1 -161 c18 -18 20 -32 6 -54 -7 -12 -37 -16 -141 -18 -162 -4 -179 -1 -179
36 0 48 13 52 161 52 112 0 141 -3 153 -16z m4 -218 c2 -16 -2 -32 -10 -37
-21 -14 -282 -11 -296 3 -13 13 -16 51 -5 62 4 3 75 5 157 4 l151 -3 3 -29z
m3 -173 c1 -20 -1 -47 -5 -51 -8 -8 -270 -10 -291 -2 -27 10 -36 54 -12 63 6
3 78 6 160 6 133 1 147 -1 148 -16z m1541 -130 c9 -11 21 -56 27 -106 10 -73
29 -153 67 -279 3 -10 -2 -19 -14 -22 -31 -10 -52 4 -69 45 -11 30 -21 39 -38
39 -20 0 -55 23 -55 35 0 2 -11 56 -25 121 -14 65 -24 123 -21 131 7 18 67 53
92 53 11 0 28 -8 36 -17z m1352 6 c45 -21 50 -64 24 -219 -14 -83 -23 -100
-53 -100 -19 0 -29 -10 -47 -47 -23 -48 -62 -70 -78 -43 -4 6 6 60 21 119 15
60 31 143 35 186 9 105 35 132 98 104z m-2900 -55 c9 -8 16 -23 16 -33 0 -36
-20 -41 -165 -41 -96 0 -145 4 -153 12 -18 18 -15 55 6 67 9 6 76 11 149 11
107 0 135 -3 147 -16z m1 -214 l0 -35 -144 -3 c-147 -3 -171 2 -171 37 0 37
20 42 170 39 l145 -3 0 -35z"/>
<path d="M2804 8106 c-9 -24 0 -58 18 -70 20 -12 58 16 58 44 0 36 -64 58 -76
26z"/>
<path d="M2956 8105 c-12 -32 -6 -56 17 -64 35 -14 59 5 55 42 -3 28 -7 32
-34 35 -22 2 -33 -2 -38 -13z"/>
<path d="M3630 7770 l-375 -5 0 -45 0 -45 379 -3 c271 -1 383 1 392 9 21 17
18 77 -3 86 -10 4 -187 6 -393 3z"/>
<path d="M3259 7578 c-14 -26 -11 -65 8 -84 16 -15 45 -16 352 -10 184 4 338
9 343 12 10 7 10 65 0 81 -6 9 -94 13 -351 15 -313 3 -344 2 -352 -14z"/>
<path d="M3260 7406 c-14 -14 -12 -70 2 -84 14 -14 844 -17 866 -3 16 10 25
61 13 79 -7 11 -91 14 -440 15 -262 1 -436 -2 -441 -7z"/>
<path d="M6497 7243 l-287 -3 24 -48 c53 -102 139 -162 246 -170 118 -8 215
38 274 130 35 55 53 100 39 96 -4 -2 -137 -4 -296 -5z"/>
<path d="M3430 7231 l-175 -6 -3 -33 c-6 -61 -1 -62 220 -62 118 0 207 4 219
10 23 13 26 62 4 80 -19 16 -59 18 -265 11z"/>
<path d="M3640 7035 c-22 -57 9 -75 127 -75 96 0 113 7 113 50 0 44 -16 50
-127 50 -101 0 -104 -1 -113 -25z"/>
<path d="M6383 6890 c-59 -34 -96 -77 -118 -139 -30 -87 -9 -166 65 -235 91
-85 210 -96 320 -28 87 54 127 188 85 288 -37 89 -127 144 -235 144 -54 0 -74
-5 -117 -30z"/>
<path d="M3261 6696 c-7 -8 -11 -30 -9 -48 l3 -33 385 0 385 0 3 33 c6 64 17
62 -388 62 -307 0 -370 -2 -379 -14z"/>
<path d="M3277 6523 c-3 -4 87 -8 199 -8 112 -1 204 2 204 5 0 10 -397 12
-403 3z"/>
<path d="M3713 6523 c15 -2 25 -9 22 -14 -4 -5 25 -9 68 -9 59 0 74 3 74 15 0
12 -17 15 -96 14 -53 -1 -84 -4 -68 -6z"/>
<path d="M3923 6511 c0 -11 5 -18 9 -15 4 3 5 11 1 19 -7 21 -12 19 -10 -4z"/>
<path d="M3673 6353 l-413 -3 -6 -24 c-3 -13 -4 -35 -2 -47 l3 -24 502 -3
c446 -2 503 0 517 14 22 21 20 50 -4 74 -17 17 -31 20 -102 18 -46 -2 -269 -4
-495 -5z"/>
<path d="M6365 6296 c-98 -43 -134 -182 -68 -264 43 -53 88 -74 150 -69 100 7
163 75 163 174 -1 125 -131 209 -245 159z"/>
<path d="M3658 5553 l-398 -3 -6 -24 c-3 -13 -4 -35 -2 -47 l3 -24 465 -3
c428 -2 466 -1 478 15 18 24 15 50 -8 73 -16 16 -31 20 -77 18 -32 -2 -237 -4
-455 -5z"/>
<path d="M5723 6445 c0 -8 4 -12 9 -9 5 3 6 10 3 15 -9 13 -12 11 -12 -6z"/>
<path d="M1798 4613 c6 -2 18 -2 25 0 6 3 1 5 -13 5 -14 0 -19 -2 -12 -5z"/>
<path d="M8080 4549 c0 -11 7 -100 15 -197 7 -97 17 -230 21 -294 l6 -118 278
0 278 0 6 53 c3 28 8 86 10 127 11 161 27 357 32 403 l5 47 -326 0 c-322 0
-325 0 -325 -21z"/>
<path d="M1917 4393 c79 -2 207 -2 285 0 79 1 15 3 -142 3 -157 0 -221 -2
-143 -3z"/>
<path d="M2560 4343 l-45 -24 -335 7 c-385 8 -431 5 -492 -36 -70 -47 -93 -91
-93 -174 0 -80 21 -120 83 -156 32 -19 53 -20 518 -20 l485 0 43 30 c55 37 76
81 76 158 0 49 -5 66 -29 99 -39 54 -87 82 -158 91 -57 8 -58 9 -30 22 15 7
27 17 27 22 0 4 -1 7 -2 7 -2 -1 -23 -13 -48 -26z m-6 -117 c44 -18 66 -52 66
-101 -1 -43 -11 -61 -50 -88 -22 -15 -64 -17 -418 -17 -425 0 -430 1 -466 54
-25 39 -20 80 15 120 l31 36 176 3 c512 8 612 7 646 -7z"/>
<path d="M4520 4230 c-303 -6 -320 -9 -431 -76 -61 -37 -116 -91 -168 -168
-35 -50 -411 -806 -411 -825 0 -8 465 -11 1615 -11 888 0 1615 1 1615 3 0 2
-12 28 -26 58 -15 30 -96 198 -180 373 -85 175 -174 352 -199 392 -74 118
-170 191 -315 240 -51 17 -97 19 -640 19 -322 0 -709 -2 -860 -5z"/>
</g>
</svg>
